<?xml version="1.0" encoding="utf-8"?>
<!-- Generator: Adobe Illustrator 16.0.0, SVG Export Plug-In . SVG Version: 6.00 Build 0)  -->
<!DOCTYPE svg PUBLIC "-//W3C//DTD SVG 1.1//EN" "http://www.w3.org/Graphics/SVG/1.1/DTD/svg11.dtd">
<svg version="1.1" id="Layer_2" xmlns="http://www.w3.org/2000/svg" xmlns:xlink="http://www.w3.org/1999/xlink" x="0px" y="0px"
	 width="240px" height="140px" viewBox="0 0 240 140" style="enable-background:new 0 0 240 140;" xml:space="preserve">
<rect style="opacity:0.8;fill:#1B1D21;" width="240.8" height="140"/>
<g>
	<path style="fill:#FFFFFF;stroke:#FFFFFF;stroke-width:0.4069;" d="M41.7,116.5c-1.8,0-2.1-1.1-2.1-2l0-3.1h-1.3l0-0.5h1.3l0-1.3
		l0.5,0l0,1.3l4.5,0v0.5h-4.5v2.9c0,1.2,0.6,1.7,1.8,1.7h0.4c1.5,0,1.8-0.7,1.8-1.8l0-0.1h0.5l0,0.3c0,1-0.2,2.1-2.3,2.1L41.7,116.5
		z"/>
	<path style="fill:#FFFFFF;stroke:#FFFFFF;stroke-width:0.4069;" d="M45.4,116.4v-1l0-2.3l0-4.5l0.5,0l0,3c0.4-0.6,1.1-0.8,2-0.8
		h1.7c1.9,0,2.6,0.5,2.6,2.2l0,3.4h-0.5l0-3.4c0-1.4-0.7-1.7-2.1-1.7l-1.7,0c-1.2,0-2,0.3-2,1.7v2.3v1H45.4z"/>
	<path style="fill:#FFFFFF;stroke:#FFFFFF;stroke-width:0.4069;" d="M56.4,116.5c-1.3,0-2.6-0.2-2.6-2.2l0-1.2
		c0-1.9,1.5-2.2,2.7-2.2h1.6c1.7,0,2.9,0.4,2.9,2.4l0,0.5h-6.6l0,0.5c0,1.5,0.8,1.8,2.2,1.8h2c1.2,0,1.8-0.1,2-1.1v-0.3H61v0.3
		c0,1.1-1,1.5-2,1.5H56.4z M58.1,111.3h-1.6c-1.6,0-2.2,0.6-2.2,1.9l6.1,0v-0.3C60.5,111.9,59.8,111.3,58.1,111.3z"/>
	<path style="fill:#FFFFFF;stroke:#FFFFFF;stroke-width:0.4069;" d="M67.5,115.1c0-1.6,0.8-2.1,2.6-2.2l3.8-0.3
		c1.7-0.1,1.9-0.6,1.9-1.7c0-1.2-0.3-1.8-1.9-1.8h-3.8c-1.2,0-2,0.1-2,1.9v0.3h-0.6l0-0.6c0-1.6,0.8-2.2,2.8-2.2h3.5
		c2.3,0,2.7,1,2.7,2.5c0,2-0.7,2.1-3.4,2.3l-1.7,0.1c-2.6,0.2-3.2,0.2-3.2,1.5l0,0.9l8.4,0v0.6l-9,0L67.5,115.1z"/>
	<path style="fill:#FFFFFF;stroke:#FFFFFF;stroke-width:0.4069;" d="M82.4,109l-3.2,2.5l-0.3-0.4l3.2-2.5l1,0l0,7.8h-0.6L82.4,109z"
		/>
	<path style="fill:#FFFFFF;stroke:#FFFFFF;stroke-width:0.4069;" d="M90.9,109.6c0-1-0.8-0.8-1.3-0.8l-1.7,0c-0.6,0-1,0.2-1,0.7
		l0,0.1c0,0.3,0.2,0.6,0.9,0.6h1.9c1,0,1.6,0.1,1.6,1.1v0c0,1.1-0.9,1-1.7,1l-1.2,0c-1,0-1.8,0-1.8-1.1l0-0.1h0.4l0,0.1
		c0,0.6,0.3,0.8,1,0.8l1.6,0c0.9,0,1.4,0,1.4-0.7l0,0c0-0.4-0.2-0.7-1-0.7h-2.2c-0.9,0-1.2-0.3-1.2-0.9v-0.1c0-0.5,0.3-1.1,1.4-1
		h1.7c0.8,0,1.6-0.1,1.6,1.2L90.9,109.6z"/>
	<path style="fill:#FFFFFF;stroke:#FFFFFF;stroke-width:0.4069;" d="M94.1,112.2c-1.2,0-1.4-0.7-1.4-1.3l0-2.1h-0.9v-0.3h0.9v-0.9
		H93v0.9h3v0.3h-3l0,1.9c0,0.8,0.4,1.2,1.2,1.2h0.3c1,0,1.2-0.4,1.2-1.2v0l0.4,0v0.2c0,0.6-0.1,1.4-1.5,1.4H94.1z"/>
	<path style="fill:#FFFFFF;stroke:#FFFFFF;stroke-width:0.4069;" d="M108.7,114.4c0,1.6-0.7,2.2-2.6,2.2l-1.7,0
		c-1.8,0-2.6-0.5-2.6-2.2l0-1.3c0-1.7,1-2.2,2.6-2.2l1.7,0c1.8,0,2.5,0.5,2.6,2.1h-0.5c-0.1-1.2-0.7-1.5-2.1-1.5h-1.7
		c-1.2,0-2,0.3-2,1.7v1.3c0,1.5,0.9,1.7,2,1.6h1.7c1.2,0,2.1-0.1,2.1-1.6l0-0.1h0.5L108.7,114.4z"/>
	<path style="fill:#FFFFFF;stroke:#FFFFFF;stroke-width:0.4069;" d="M112.5,116.5c-1.3,0-2.6-0.2-2.6-2.2l0-1.2
		c0-1.9,1.5-2.2,2.7-2.2l1.6,0c1.7,0,2.9,0.4,2.9,2.4l0,0.5l-6.6,0l0,0.5c0,1.5,0.8,1.8,2.2,1.8h2c1.2,0,1.8-0.1,1.9-1.1l0-0.3
		l0.5,0v0.3c0,1.1-1,1.5-2,1.5L112.5,116.5z M114.2,111.3l-1.6,0c-1.6,0-2.2,0.6-2.2,1.9h6.1v-0.3
		C116.6,111.9,115.9,111.3,114.2,111.3z"/>
	<path style="fill:#FFFFFF;stroke:#FFFFFF;stroke-width:0.4069;" d="M124.9,112.9c0-1-0.4-1.6-2.2-1.6h-0.8c-2.1,0-2.8,0.6-2.8,1.9
		l0,3.2l-0.5,0v-5.5h0.5l0,0.9c0.3-0.8,1.3-1,2.5-1l1.6,0c1.7,0,2.3,0.9,2.3,1.8v3.8l-0.5,0V112.9z"/>
	<path style="fill:#FFFFFF;stroke:#FFFFFF;stroke-width:0.4069;" d="M129.9,116.5c-1.8,0-2.1-1.1-2.1-2l0-3.1h-1.3v-0.5l1.3,0l0-1.3
		h0.5l0,1.3h4.5l0,0.5h-4.5v2.9c0,1.2,0.6,1.7,1.8,1.7l0.4,0c1.5,0,1.8-0.7,1.8-1.8v-0.1h0.5l0,0.3c0,1-0.2,2.1-2.3,2.1H129.9z"/>
	<path style="fill:#FFFFFF;stroke:#FFFFFF;stroke-width:0.4069;" d="M140,115.8L140,115.8c-0.4,0.7-1.4,0.8-2.6,0.8h-1.5
		c-1.8,0-2.3-0.9-2.3-1.8l0-3.8h0.5l0,3.5c0,1,0.5,1.6,1.9,1.6h2.2c1.2,0,1.7-0.4,1.7-1.7v-3.4h0.5l0,5.5H140V115.8z"/>
	<path style="fill:#FFFFFF;stroke:#FFFFFF;stroke-width:0.4069;" d="M147.6,113.1c0-1.6-0.4-1.8-2-1.8h-1.1c-1.1,0-1.7,0.8-1.7,1.6
		l0,3.5h-0.5v-5.5l0.5,0v0.7h0c0.4-0.8,1.2-0.8,1.9-0.8l1.1,0c1.8,0,2.3,0.5,2.3,1.9l0,0.5h-0.5V113.1z"/>
	<path style="fill:#FFFFFF;stroke:#FFFFFF;stroke-width:0.4069;" d="M149.7,117.9c1.3,0,1.8-0.1,2.4-1.5h-0.8l-2.9-5.5h0.6l2.7,5
		h0.7l2.5-5h0.6l-3.1,6.2c-0.5,0.9-1.1,1.3-2.6,1.3l-0.9,0v-0.5H149.7z"/>
	<path style="fill:#FFFFFF;stroke:#FFFFFF;stroke-width:0.4069;" d="M168.3,114.4c0,1.6-0.7,2.1-2.6,2.2l-1.7,0
		c-1.8,0-2.6-0.5-2.6-2.1v-1.3c0-1.7,1-2.2,2.6-2.2l1.7,0c1.8,0,2.6,0.5,2.6,2.1h-0.5c-0.1-1.2-0.7-1.5-2.1-1.5l-1.7,0
		c-1.2,0-2,0.3-2,1.7l0,1.3c0,1.5,0.9,1.7,2,1.7h1.7c1.2,0,2.1-0.1,2.1-1.7v-0.1h0.5V114.4z"/>
	<path style="fill:#FFFFFF;stroke:#FFFFFF;stroke-width:0.4069;" d="M176.1,115.8L176.1,115.8c-0.4,0.7-1.4,0.8-2.6,0.8l-1.5,0
		c-1.8,0-2.3-0.9-2.3-1.8l0-3.8h0.5l0,3.5c0,1,0.5,1.6,1.9,1.6h2.1c1.2,0,1.7-0.4,1.7-1.7l0-3.4l0.5,0l0,5.5l-0.5,0V115.8z"/>
	<path style="fill:#FFFFFF;stroke:#FFFFFF;stroke-width:0.4069;" d="M180.9,116.5c-1,0-1.7-0.1-2-0.6l0,0.6l-0.5,0l0-7.8h0.5v2.9
		c0.4-0.6,1.1-0.7,2-0.7h2c1.9,0,2.6,0.6,2.6,2.2l0,1.3c0,1.8-0.7,2.2-2.6,2.1H180.9z M185,113.1c0-1.4-0.7-1.7-2.1-1.7l-2,0
		c-1.2,0-2,0.3-2,1.7v1.3c0,1.5,0.9,1.7,2,1.7h2c1.2,0,2.1-0.1,2.1-1.7L185,113.1z"/>
	<path style="fill:#FFFFFF;stroke:#FFFFFF;stroke-width:0.4069;" d="M189.4,116.5c-1.3,0-2.6-0.2-2.6-2.2v-1.2
		c0-1.9,1.5-2.2,2.7-2.2h1.6c1.7,0,2.9,0.4,2.9,2.4l0,0.5h-6.6v0.5c0,1.5,0.8,1.8,2.1,1.8h2c1.2,0,1.8-0.1,2-1.1v-0.3h0.5l0,0.3
		c0,1.1-1,1.5-2,1.5H189.4z M191.1,111.3h-1.6c-1.6,0-2.2,0.6-2.2,1.9l6.1,0v-0.3C193.4,111.9,192.8,111.3,191.1,111.3z"/>
</g>
<defs>
	<filter id="Adobe_OpacityMaskFilter" filterUnits="userSpaceOnUse" x="43.1" y="123.5" width="153.9" height="3.1">
		<feColorMatrix  type="matrix" values="1 0 0 0 0  0 1 0 0 0  0 0 1 0 0  0 0 0 1 0"/>
	</filter>
</defs>
<mask maskUnits="userSpaceOnUse" x="43.1" y="123.5" width="153.9" height="3.1" id="SVGID_1_">
	<g style="filter:url(#Adobe_OpacityMaskFilter);">
		
			<radialGradient id="SVGID_2_" cx="-2078.5303" cy="-326.3628" r="4.5842" gradientTransform="matrix(0 -0.3333 16.7836 0 5597.5508 -567.7732)" gradientUnits="userSpaceOnUse">
			<stop  offset="0.5674" style="stop-color:#FFFFFF"/>
			<stop  offset="1" style="stop-color:#231F20"/>
		</radialGradient>
		<path style="fill:url(#SVGID_2_);" d="M120,123.5c42.5,0,76.9,0.7,76.9,1.5c0,0.8-34.4,1.5-76.9,1.5c-42.5,0-76.9-0.7-76.9-1.5
			C43.1,124.2,77.5,123.5,120,123.5z"/>
	</g>
</mask>
<path style="mask:url(#SVGID_1_);fill:#00ADEE;" d="M120,123.5c42.5,0,76.9,0.7,76.9,1.5c0,0.8-34.4,1.5-76.9,1.5
	c-42.5,0-76.9-0.7-76.9-1.5C43.1,124.2,77.5,123.5,120,123.5z"/>
<defs>
	<filter id="Adobe_OpacityMaskFilter_1_" filterUnits="userSpaceOnUse" x="72.4" y="124" width="95.2" height="1.9">
		<feColorMatrix  type="matrix" values="1 0 0 0 0  0 1 0 0 0  0 0 1 0 0  0 0 0 1 0"/>
	</filter>
</defs>
<mask maskUnits="userSpaceOnUse" x="72.4" y="124" width="95.2" height="1.9" id="SVGID_3_">
	<g style="filter:url(#Adobe_OpacityMaskFilter_1_);">
		
			<radialGradient id="SVGID_4_" cx="-1591.0361" cy="-313.0796" r="2.2908" gradientTransform="matrix(0 -0.4168 20.7643 0 6620.873 -538.1438)" gradientUnits="userSpaceOnUse">
			<stop  offset="0.5674" style="stop-color:#FFFFFF"/>
			<stop  offset="1" style="stop-color:#231F20"/>
		</radialGradient>
		<path style="fill:url(#SVGID_4_);" d="M120,124c26.3,0,47.6,0.4,47.6,1c0,0.5-21.3,1-47.6,1c-26.3,0-47.6-0.4-47.6-0.9
			C72.4,124.5,93.7,124,120,124z"/>
	</g>
</mask>
<path style="mask:url(#SVGID_3_);fill:#6DCEF5;" d="M120,124c26.3,0,47.6,0.4,47.6,1c0,0.5-21.3,1-47.6,1c-26.3,0-47.6-0.4-47.6-0.9
	C72.4,124.5,93.7,124,120,124z"/>
<defs>
	<filter id="Adobe_OpacityMaskFilter_2_" filterUnits="userSpaceOnUse" x="10" y="124.5" width="220" height="1">
		<feColorMatrix  type="matrix" values="1 0 0 0 0  0 1 0 0 0  0 0 1 0 0  0 0 0 1 0"/>
	</filter>
</defs>
<mask maskUnits="userSpaceOnUse" x="10" y="124.5" width="220" height="1" id="SVGID_5_">
	<g style="filter:url(#Adobe_OpacityMaskFilter_2_);">
		
			<radialGradient id="SVGID_6_" cx="-9927.0479" cy="-301.5664" r="4.5658" gradientTransform="matrix(0 -0.1099 23.9986 0 7357.1729 -965.9478)" gradientUnits="userSpaceOnUse">
			<stop  offset="0.5674" style="stop-color:#FFFFFF"/>
			<stop  offset="1" style="stop-color:#231F20"/>
		</radialGradient>
		<path style="fill:url(#SVGID_6_);" d="M120,124.5c60.7,0,110,0.2,110,0.5c0,0.3-49.3,0.5-110,0.5c-60.8,0-110-0.2-110-0.5
			C10,124.8,59.2,124.5,120,124.5z"/>
	</g>
</mask>
<path style="display:none;mask:url(#SVGID_5_);fill:#83D4F6;" d="M120,124.5c60.7,0,110,0.2,110,0.5c0,0.3-49.3,0.5-110,0.5
	c-60.8,0-110-0.2-110-0.5C10,124.8,59.2,124.5,120,124.5z"/>
<defs>
	<filter id="Adobe_OpacityMaskFilter_3_" filterUnits="userSpaceOnUse" x="10" y="125.5" width="220" height="1">
		<feColorMatrix  type="matrix" values="1 0 0 0 0  0 1 0 0 0  0 0 1 0 0  0 0 0 1 0"/>
	</filter>
</defs>
<mask maskUnits="userSpaceOnUse" x="10" y="125.5" width="220" height="1" id="SVGID_7_">
	<g style="filter:url(#Adobe_OpacityMaskFilter_3_);">
		
			<radialGradient id="SVGID_8_" cx="-9936.1494" cy="-301.5664" r="4.5658" gradientTransform="matrix(0 -0.1099 23.9986 0 7357.1729 -965.9478)" gradientUnits="userSpaceOnUse">
			<stop  offset="0.5674" style="stop-color:#FFFFFF"/>
			<stop  offset="1" style="stop-color:#231F20"/>
		</radialGradient>
		<path style="fill:url(#SVGID_8_);" d="M120,125.5c60.7,0,110,0.2,110,0.5c0,0.3-49.3,0.5-110,0.5c-60.8,0-110-0.2-110-0.5
			C10,125.8,59.2,125.5,120,125.5z"/>
	</g>
</mask>
<path style="display:none;mask:url(#SVGID_7_);fill:#83D4F6;" d="M120,125.5c60.7,0,110,0.2,110,0.5c0,0.3-49.3,0.5-110,0.5
	c-60.8,0-110-0.2-110-0.5C10,125.8,59.2,125.5,120,125.5z"/>
<defs>
	<filter id="Adobe_OpacityMaskFilter_4_" filterUnits="userSpaceOnUse" x="0" y="124" width="240" height="2">
		<feColorMatrix  type="matrix" values="1 0 0 0 0  0 1 0 0 0  0 0 1 0 0  0 0 0 1 0"/>
	</filter>
</defs>
<mask maskUnits="userSpaceOnUse" x="0" y="124" width="240" height="2" id="SVGID_9_">
	<g style="filter:url(#Adobe_OpacityMaskFilter_4_);">
		
			<radialGradient id="SVGID_10_" cx="-9929.1631" cy="-301.5688" r="4.5668" gradientTransform="matrix(0 -0.2198 26.1803 0 8015.1758 -2057.8357)" gradientUnits="userSpaceOnUse">
			<stop  offset="0.5674" style="stop-color:#FFFFFF"/>
			<stop  offset="1" style="stop-color:#231F20"/>
		</radialGradient>
		<path style="fill:url(#SVGID_10_);enable-background:new    ;" d="M120,124c45.2,0,84.6,0.2,105.1,0.5c9.5,0.1,14.9,0,14.9,0.5
			s-5.4,0.3-14.9,0.5c-20.5,0.3-59.8,0.5-105.1,0.5c-45.2,0-84.6-0.2-105-0.5c-9.5-0.1-15,0.1-15-0.5s5.4-0.3,14.9-0.5
			C35.4,124.2,74.8,124,120,124z"/>
	</g>
</mask>
<path style="mask:url(#SVGID_9_);fill:#83D4F6;" d="M120,124c45.2,0,84.6,0.2,105,0.5c9.5,0.1,15,0,15,0.5s-5.4,0.3-15,0.5
	c-20.5,0.3-59.8,0.5-105,0.5c-45.2,0-84.6-0.2-105-0.5c-9.5-0.1-15,0-15-0.5s5.4-0.3,15-0.5C35.4,124.2,74.8,124,120,124z"/>
<defs>
	<filter id="Adobe_OpacityMaskFilter_5_" filterUnits="userSpaceOnUse" x="72" y="124" width="96" height="2">
		<feColorMatrix  type="matrix" values="1 0 0 0 0  0 1 0 0 0  0 0 1 0 0  0 0 0 1 0"/>
	</filter>
</defs>
<mask maskUnits="userSpaceOnUse" x="72" y="124" width="96" height="2" id="SVGID_11_">
	<g style="filter:url(#Adobe_OpacityMaskFilter_5_);">
		
			<radialGradient id="SVGID_12_" cx="-2487.3184" cy="-313.0786" r="2.2903" gradientTransform="matrix(0 -0.4368 20.9462 0 6677.8027 -961.4612)" gradientUnits="userSpaceOnUse">
			<stop  offset="0.5674" style="stop-color:#FFFFFF"/>
			<stop  offset="1" style="stop-color:#231F20"/>
		</radialGradient>
		<path style="fill:url(#SVGID_12_);" d="M120,124c26.5,0,48,0.4,48,1c0,0.5-21.5,1-48,1c-26.5,0-48-0.4-48-1
			C72,124.4,93.5,124,120,124z"/>
	</g>
</mask>
<path style="mask:url(#SVGID_11_);fill:#FFFFFF;" d="M120,124c26.5,0,48,0.4,48,1c0,0.5-21.5,1-48,1c-26.5,0-48-0.4-48-1
	C72,124.4,93.5,124,120,124z"/>
<defs>
	<filter id="Adobe_OpacityMaskFilter_6_" filterUnits="userSpaceOnUse" x="100" y="123.5" width="40" height="3.1">
		<feColorMatrix  type="matrix" values="1 0 0 0 0  0 1 0 0 0  0 0 1 0 0  0 0 0 1 0"/>
	</filter>
</defs>
<mask maskUnits="userSpaceOnUse" x="100" y="123.5" width="40" height="3.1" id="SVGID_13_">
	<g style="filter:url(#Adobe_OpacityMaskFilter_6_);">
		
			<radialGradient id="SVGID_14_" cx="-2782.1826" cy="-598.4321" r="5.8926" gradientTransform="matrix(0 -0.2594 3.3936 0 2150.8267 -596.6992)" gradientUnits="userSpaceOnUse">
			<stop  offset="0.5674" style="stop-color:#FFFFFF"/>
			<stop  offset="1" style="stop-color:#231F20"/>
		</radialGradient>
		<path style="fill:url(#SVGID_14_);" d="M120,123.5c11,0,20,0.7,20,1.5c0,0.8-9,1.5-20,1.5c-11,0-20-0.7-20-1.5
			C100,124.2,109,123.5,120,123.5z"/>
	</g>
</mask>
<path style="mask:url(#SVGID_13_);fill:#FFFFFF;" d="M120,123.5c11,0,20,0.7,20,1.5c0,0.8-9,1.5-20,1.5c-11,0-20-0.7-20-1.5
	C100,124.2,109,123.5,120,123.5z"/>
<defs>
	<filter id="Adobe_OpacityMaskFilter_7_" filterUnits="userSpaceOnUse" x="81.4" y="122.1" width="77.1" height="5.9">
		<feColorMatrix  type="matrix" values="1 0 0 0 0  0 1 0 0 0  0 0 1 0 0  0 0 0 1 0"/>
	</filter>
</defs>
<mask maskUnits="userSpaceOnUse" x="81.4" y="122.1" width="77.1" height="5.9" id="SVGID_15_">
	<g style="filter:url(#Adobe_OpacityMaskFilter_7_);">
		
			<radialGradient id="SVGID_16_" cx="-2078.585" cy="-523.0068" r="8.8445" gradientTransform="matrix(0 -0.3333 4.362 0 2401.3552 -567.7927)" gradientUnits="userSpaceOnUse">
			<stop  offset="0.5674" style="stop-color:#FFFFFF"/>
			<stop  offset="1" style="stop-color:#231F20"/>
		</radialGradient>
		<path style="fill:url(#SVGID_16_);" d="M120,122.1c21.3,0,38.6,1.3,38.6,3c0,1.6-17.3,2.9-38.6,2.9c-21.3,0-38.6-1.3-38.6-2.9
			C81.4,123.4,98.7,122.1,120,122.1z"/>
	</g>
</mask>
<path style="opacity:0.7;mask:url(#SVGID_15_);fill:#FFFFFF;" d="M120,122.1c21.3,0,38.6,1.3,38.6,3c0,1.6-17.3,2.9-38.6,2.9
	c-21.3,0-38.6-1.3-38.6-2.9C81.4,123.4,98.7,122.1,120,122.1z"/>
<g>
	<polygon style="fill:#FFFFFF;stroke:#231F20;stroke-width:1.638;" points="197.9,105 36.9,105 36.9,62.2 197.9,62.2 	"/>
	<path style="fill:#B8779A;" d="M83.1,80.3C83,81.1,83,82,83,82.9c0,1,0,2,0.1,2.9L83.1,80.3z"/>
	<g>
		<polygon style="fill:#231F20;" points="74.6,100.2 74.6,66.9 58.4,100.2 		"/>
		<polygon style="fill:#231F20;" points="64.6,66.9 51.8,66.9 58.2,80.7 		"/>
		<polygon style="fill:#231F20;" points="41.8,66.9 41.8,66.9 41.8,100.2 58,100.2 		"/>
		<path style="fill:#231F20;" d="M118.9,92.5c-1.3-1.2-2-3.1-2-5.6l0-19.9h0l0,19.9C116.9,89.4,117.6,91.3,118.9,92.5z"/>
		<path style="fill:#231F20;" d="M126.5,100.2l51.6,0c-7.4-0.5-11.7-5.2-12.4-14.4l0-5.5c0.8-9.1,5.8-13.4,13.6-13.4l-40.1,0l0,23.9
			C138.3,95.8,135.2,99.8,126.5,100.2z M146.2,72.9H157c1.8,0,3.4,1.5,3.5,4.2c0,1.8-1.3,3.6-3.6,3.6h-10.7L146.2,72.9z M146.2,86.3
			l10.7,0c1.8,0,3.4,1.5,3.5,4.2c0,1.8-1.2,3.6-3.6,3.6h-10.7L146.2,86.3z"/>
		<path style="fill:#231F20;" d="M173.4,80.7c0.5-5.1,2.7-7.6,5.3-7.6l14.1,0v-0.2h-14.1C176.1,72.9,174,75.6,173.4,80.7z"/>
		<path style="fill:#231F20;" d="M111.5,94H96.4c-3.2,0-5.9-3.6-5.9-11c0-6.9,2.6-10.1,5.9-10.1l13.8,0l0-6H96l0,0
			c-7.4,0.2-12.1,4.5-12.9,13.3l0,5.5c0.7,9.1,4.9,13.8,12.2,14.4l28,0C116.4,99.9,113,97.4,111.5,94z"/>
		<path style="fill:#231F20;" d="M118.9,92.5c1.3,1.2,3.4,1.8,6,1.8c5,0,7.4-2.6,7.4-7.3v-20h-15.4l0,19.9
			C116.9,89.4,117.6,91.3,118.9,92.5z"/>
		<path style="fill:#231F20;" d="M173.4,80.7l19.4,0l0-7.6l-14.1,0C176.1,73.1,174,75.6,173.4,80.7z"/>
		<path style="fill:#231F20;" d="M178.7,94.1h14.1l0-7.4l-19.3,0C174.3,91.5,176.4,94.1,178.7,94.1z"/>
	</g>
</g>
<g>
	<defs>
		<filter id="Adobe_OpacityMaskFilter_8_" filterUnits="userSpaceOnUse" x="195" y="38.4" width="4.2" height="49.8">
			<feColorMatrix  type="matrix" values="1 0 0 0 0  0 1 0 0 0  0 0 1 0 0  0 0 0 1 0"/>
		</filter>
	</defs>
	<mask maskUnits="userSpaceOnUse" x="195" y="38.4" width="4.2" height="49.8" id="SVGID_17_">
		<g style="filter:url(#Adobe_OpacityMaskFilter_8_);">
			
				<radialGradient id="SVGID_18_" cx="979.8799" cy="-193.9819" r="6.3665" gradientTransform="matrix(0.3333 0 0 3.9092 -129.5022 821.6067)" gradientUnits="userSpaceOnUse">
				<stop  offset="0.5674" style="stop-color:#FFFFFF"/>
				<stop  offset="1" style="stop-color:#231F20"/>
			</radialGradient>
			<path style="fill:url(#SVGID_18_);" d="M199.2,63.3c0,13.8-0.9,24.9-2.1,24.9c-1.2,0-2.1-11.2-2.1-24.9c0-13.8,1-24.9,2.1-24.9
				C198.3,38.4,199.2,49.5,199.2,63.3z"/>
		</g>
	</mask>
	<path style="mask:url(#SVGID_17_);fill:#00ADEE;" d="M199.2,63.3c0,13.8-0.9,24.9-2.1,24.9c-1.2,0-2.1-11.2-2.1-24.9
		c0-13.8,1-24.9,2.1-24.9C198.3,38.4,199.2,49.5,199.2,63.3z"/>
	<defs>
		<filter id="Adobe_OpacityMaskFilter_9_" filterUnits="userSpaceOnUse" x="195.8" y="47.9" width="2.7" height="30.8">
			<feColorMatrix  type="matrix" values="1 0 0 0 0  0 1 0 0 0  0 0 1 0 0  0 0 0 1 0"/>
		</filter>
	</defs>
	<mask maskUnits="userSpaceOnUse" x="195.8" y="47.9" width="2.7" height="30.8" id="SVGID_19_">
		<g style="filter:url(#Adobe_OpacityMaskFilter_9_);">
			
				<radialGradient id="SVGID_20_" cx="854.6729" cy="-206.2612" r="3.1851" gradientTransform="matrix(0.4168 0 0 4.8365 -159.1345 1060.875)" gradientUnits="userSpaceOnUse">
				<stop  offset="0.5674" style="stop-color:#FFFFFF"/>
				<stop  offset="1" style="stop-color:#231F20"/>
			</radialGradient>
			<path style="fill:url(#SVGID_20_);" d="M198.4,63.3c0,8.5-0.6,15.4-1.3,15.4c-0.7,0-1.3-6.9-1.3-15.4c0-8.5,0.6-15.4,1.3-15.4
				C197.8,47.9,198.4,54.8,198.4,63.3z"/>
		</g>
	</mask>
	<path style="mask:url(#SVGID_19_);fill:#6DCEF5;" d="M198.4,63.3c0,8.5-0.6,15.4-1.3,15.4c-0.7,0-1.3-6.9-1.3-15.4
		c0-8.5,0.6-15.4,1.3-15.4C197.8,47.9,198.4,54.8,198.4,63.3z"/>
	<defs>
		<filter id="Adobe_OpacityMaskFilter_10_" filterUnits="userSpaceOnUse" x="196.5" y="24.4" width="1" height="77.7">
			<feColorMatrix  type="matrix" values="1 0 0 0 0  0 1 0 0 0  0 0 1 0 0  0 0 0 1 0"/>
		</filter>
	</defs>
	<mask maskUnits="userSpaceOnUse" x="196.5" y="24.4" width="1" height="77.7" id="SVGID_21_">
		<g style="filter:url(#Adobe_OpacityMaskFilter_10_);">
			
				<radialGradient id="SVGID_22_" cx="2928.0391" cy="-216.73" r="6.3887" gradientTransform="matrix(7.930000e-02 0 0 6.0979 -35.1496 1384.8857)" gradientUnits="userSpaceOnUse">
				<stop  offset="0.5674" style="stop-color:#FFFFFF"/>
				<stop  offset="1" style="stop-color:#231F20"/>
			</radialGradient>
			<path style="fill:url(#SVGID_22_);" d="M197.6,63.3c0,21.5-0.2,38.9-0.5,38.8c-0.3,0-0.5-17.4-0.5-38.8c0-21.5,0.2-38.9,0.5-38.9
				C197.3,24.4,197.6,41.8,197.6,63.3z"/>
		</g>
	</mask>
	<path style="mask:url(#SVGID_21_);fill:#83D4F6;" d="M197.6,63.3c0,21.5-0.2,38.9-0.5,38.8c-0.3,0-0.5-17.4-0.5-38.8
		c0-21.5,0.2-38.9,0.5-38.9C197.3,24.4,197.6,41.8,197.6,63.3z"/>
	<defs>
		<filter id="Adobe_OpacityMaskFilter_11_" filterUnits="userSpaceOnUse" x="196.2" y="47.9" width="1.8" height="30.8">
			<feColorMatrix  type="matrix" values="1 0 0 0 0  0 1 0 0 0  0 0 1 0 0  0 0 0 1 0"/>
		</filter>
	</defs>
	<mask maskUnits="userSpaceOnUse" x="196.2" y="47.9" width="1.8" height="30.8" id="SVGID_23_">
		<g style="filter:url(#Adobe_OpacityMaskFilter_11_);">
			
				<radialGradient id="SVGID_24_" cx="1080.7051" cy="-206.2612" r="3.1846" gradientTransform="matrix(0.2857 0 0 4.8365 -111.6628 1060.875)" gradientUnits="userSpaceOnUse">
				<stop  offset="0.5674" style="stop-color:#FFFFFF"/>
				<stop  offset="1" style="stop-color:#231F20"/>
			</radialGradient>
			<path style="fill:url(#SVGID_24_);" d="M198,63.3c0,8.5-0.4,15.4-0.9,15.4c-0.5,0-0.9-6.9-0.9-15.4c0-8.5,0.4-15.4,0.9-15.4
				C197.6,47.9,198,54.8,198,63.3z"/>
		</g>
	</mask>
	<path style="mask:url(#SVGID_23_);fill:#FFFFFF;" d="M198,63.3c0,8.5-0.4,15.4-0.9,15.4c-0.5,0-0.9-6.9-0.9-15.4
		c0-8.5,0.4-15.4,0.9-15.4C197.6,47.9,198,54.8,198,63.3z"/>
	<defs>
		<filter id="Adobe_OpacityMaskFilter_12_" filterUnits="userSpaceOnUse" x="195" y="56.8" width="4.2" height="13">
			<feColorMatrix  type="matrix" values="1 0 0 0 0  0 1 0 0 0  0 0 1 0 0  0 0 0 1 0"/>
		</filter>
	</defs>
	<mask maskUnits="userSpaceOnUse" x="195" y="56.8" width="4.2" height="13" id="SVGID_25_">
		<g style="filter:url(#Adobe_OpacityMaskFilter_12_);">
			
				<radialGradient id="SVGID_26_" cx="1147.6104" cy="54.5215" r="8.1848" gradientTransform="matrix(0.2594 0 0 0.7922 -100.5981 20.0967)" gradientUnits="userSpaceOnUse">
				<stop  offset="0.5674" style="stop-color:#FFFFFF"/>
				<stop  offset="1" style="stop-color:#231F20"/>
			</radialGradient>
			<path style="fill:url(#SVGID_26_);" d="M199.2,63.3c0,3.6-0.9,6.5-2.1,6.5c-1.2,0-2.1-2.9-2.1-6.5c0-3.6,1-6.5,2.1-6.5
				C198.3,56.8,199.2,59.7,199.2,63.3z"/>
		</g>
	</mask>
	<path style="mask:url(#SVGID_25_);fill:#FFFFFF;" d="M199.2,63.3c0,3.6-0.9,6.5-2.1,6.5c-1.2,0-2.1-2.9-2.1-6.5
		c0-3.6,1-6.5,2.1-6.5C198.3,56.8,199.2,59.7,199.2,63.3z"/>
	<defs>
		<filter id="Adobe_OpacityMaskFilter_13_" filterUnits="userSpaceOnUse" x="193" y="50.8" width="8.2" height="25">
			<feColorMatrix  type="matrix" values="1 0 0 0 0  0 1 0 0 0  0 0 1 0 0  0 0 0 1 0"/>
		</filter>
	</defs>
	<mask maskUnits="userSpaceOnUse" x="193" y="50.8" width="8.2" height="25" id="SVGID_27_">
		<g style="filter:url(#Adobe_OpacityMaskFilter_13_);">
			
				<radialGradient id="SVGID_28_" cx="979.8994" cy="-13.9551" r="12.2847" gradientTransform="matrix(0.3333 0 0 1.016 -129.5061 77.4691)" gradientUnits="userSpaceOnUse">
				<stop  offset="0.5674" style="stop-color:#FFFFFF"/>
				<stop  offset="1" style="stop-color:#231F20"/>
			</radialGradient>
			<path style="fill:url(#SVGID_28_);" d="M201.2,63.3c0,6.9-1.8,12.5-4.1,12.5c-2.3,0-4.1-5.6-4.1-12.5c0-6.9,1.8-12.5,4.1-12.5
				C199.4,50.8,201.2,56.4,201.2,63.3z"/>
		</g>
	</mask>
	<path style="opacity:0.7;mask:url(#SVGID_27_);fill:#FFFFFF;" d="M201.2,63.3c0,6.9-1.8,12.5-4.1,12.5c-2.3,0-4.1-5.6-4.1-12.5
		c0-6.9,1.8-12.5,4.1-12.5C199.4,50.8,201.2,56.4,201.2,63.3z"/>
</g>
<g>
	<defs>
		<filter id="Adobe_OpacityMaskFilter_14_" filterUnits="userSpaceOnUse" x="179.2" y="61.3" width="35.8" height="3.1">
			<feColorMatrix  type="matrix" values="1 0 0 0 0  0 1 0 0 0  0 0 1 0 0  0 0 0 1 0"/>
		</filter>
	</defs>
	<mask maskUnits="userSpaceOnUse" x="179.2" y="61.3" width="35.8" height="3.1" id="SVGID_29_">
		<g style="filter:url(#Adobe_OpacityMaskFilter_14_);">
			
				<radialGradient id="SVGID_30_" cx="-1892.0596" cy="158.6064" r="4.5874" gradientTransform="matrix(0 -0.3333 3.9092 0 -422.8977 -567.7947)" gradientUnits="userSpaceOnUse">
				<stop  offset="0.5674" style="stop-color:#FFFFFF"/>
				<stop  offset="1" style="stop-color:#231F20"/>
			</radialGradient>
			<path style="fill:url(#SVGID_30_);" d="M197.1,61.3c9.9,0,17.9,0.7,17.9,1.5c0,0.8-8,1.5-17.9,1.5c-9.9,0-17.9-0.7-17.9-1.5
				C179.2,62,187.2,61.3,197.1,61.3z"/>
		</g>
	</mask>
	<path style="mask:url(#SVGID_29_);fill:#00ADEE;" d="M197.1,61.3c9.9,0,17.9,0.7,17.9,1.5c0,0.8-8,1.5-17.9,1.5
		c-9.9,0-17.9-0.7-17.9-1.5C179.2,62,187.2,61.3,197.1,61.3z"/>
	<defs>
		<filter id="Adobe_OpacityMaskFilter_15_" filterUnits="userSpaceOnUse" x="186" y="61.9" width="22.2" height="1.9">
			<feColorMatrix  type="matrix" values="1 0 0 0 0  0 1 0 0 0  0 0 1 0 0  0 0 0 1 0"/>
		</filter>
	</defs>
	<mask maskUnits="userSpaceOnUse" x="186" y="61.9" width="22.2" height="1.9" id="SVGID_31_">
		<g style="filter:url(#Adobe_OpacityMaskFilter_15_);">
			
				<radialGradient id="SVGID_32_" cx="-1441.9072" cy="78.7261" r="2.2927" gradientTransform="matrix(0 -0.4168 4.8365 0 -183.6333 -538.1604)" gradientUnits="userSpaceOnUse">
				<stop  offset="0.5674" style="stop-color:#FFFFFF"/>
				<stop  offset="1" style="stop-color:#231F20"/>
			</radialGradient>
			<path style="fill:url(#SVGID_32_);" d="M197.1,61.9c6.1,0,11.1,0.4,11.1,1c0,0.5-5,1-11.1,1c-6.1,0-11.1-0.4-11.1-1
				C186,62.3,191,61.9,197.1,61.9z"/>
		</g>
	</mask>
	<path style="mask:url(#SVGID_31_);fill:#6DCEF5;" d="M197.1,61.9c6.1,0,11.1,0.4,11.1,1c0,0.5-5,1-11.1,1c-6.1,0-11.1-0.4-11.1-1
		C186,62.3,191,61.9,197.1,61.9z"/>
	<defs>
		<filter id="Adobe_OpacityMaskFilter_16_" filterUnits="userSpaceOnUse" x="169.2" y="62.5" width="55.9" height="0.7">
			<feColorMatrix  type="matrix" values="1 0 0 0 0  0 1 0 0 0  0 0 1 0 0  0 0 0 1 0"/>
		</filter>
	</defs>
	<mask maskUnits="userSpaceOnUse" x="169.2" y="62.5" width="55.9" height="0.7" id="SVGID_33_">
		<g style="filter:url(#Adobe_OpacityMaskFilter_16_);">
			
				<radialGradient id="SVGID_34_" cx="-9142.7217" cy="9.3052" r="4.5677" gradientTransform="matrix(0 -7.930000e-02 6.0979 0 140.3853 -662.1511)" gradientUnits="userSpaceOnUse">
				<stop  offset="0.5674" style="stop-color:#FFFFFF"/>
				<stop  offset="1" style="stop-color:#231F20"/>
			</radialGradient>
			<path style="fill:url(#SVGID_34_);" d="M197.1,62.5c15.4,0,28,0.2,28,0.4c0,0.2-12.5,0.4-28,0.4s-27.9-0.2-27.9-0.4
				C169.2,62.7,181.7,62.5,197.1,62.5z"/>
		</g>
	</mask>
	<path style="mask:url(#SVGID_33_);fill:#83D4F6;" d="M197.1,62.5c15.4,0,28,0.2,28,0.4c0,0.2-12.5,0.4-28,0.4s-27.9-0.2-27.9-0.4
		C169.2,62.7,181.7,62.5,197.1,62.5z"/>
	<defs>
		<filter id="Adobe_OpacityMaskFilter_17_" filterUnits="userSpaceOnUse" x="186" y="62.2" width="22.2" height="1.3">
			<feColorMatrix  type="matrix" values="1 0 0 0 0  0 1 0 0 0  0 0 1 0 0  0 0 0 1 0"/>
		</filter>
	</defs>
	<mask maskUnits="userSpaceOnUse" x="186" y="62.2" width="22.2" height="1.3" id="SVGID_35_">
		<g style="filter:url(#Adobe_OpacityMaskFilter_17_);">
			
				<radialGradient id="SVGID_36_" cx="-2269.7627" cy="78.7261" r="2.2888" gradientTransform="matrix(0 -0.2857 4.8365 0 -183.6333 -585.6428)" gradientUnits="userSpaceOnUse">
				<stop  offset="0.5674" style="stop-color:#FFFFFF"/>
				<stop  offset="1" style="stop-color:#231F20"/>
			</radialGradient>
			<path style="fill:url(#SVGID_36_);" d="M197.1,62.2c6.1,0,11.1,0.3,11.1,0.7c0,0.4-5,0.7-11.1,0.7c-6.1,0-11.1-0.3-11.1-0.7
				C186,62.5,191,62.2,197.1,62.2z"/>
		</g>
	</mask>
	<path style="mask:url(#SVGID_35_);fill:#FFFFFF;" d="M197.1,62.2c6.1,0,11.1,0.3,11.1,0.7c0,0.4-5,0.7-11.1,0.7
		c-6.1,0-11.1-0.3-11.1-0.7C186,62.5,191,62.2,197.1,62.2z"/>
	<defs>
		<filter id="Adobe_OpacityMaskFilter_18_" filterUnits="userSpaceOnUse" x="192.5" y="61.3" width="9.3" height="3.1">
			<feColorMatrix  type="matrix" values="1 0 0 0 0  0 1 0 0 0  0 0 1 0 0  0 0 0 1 0"/>
		</filter>
	</defs>
	<mask maskUnits="userSpaceOnUse" x="192.5" y="61.3" width="9.3" height="3.1" id="SVGID_37_">
		<g style="filter:url(#Adobe_OpacityMaskFilter_18_);">
			
				<radialGradient id="SVGID_38_" cx="-2542.5332" cy="1794.4224" r="5.897" gradientTransform="matrix(0 -0.2594 0.7922 0 -1224.416 -596.7041)" gradientUnits="userSpaceOnUse">
				<stop  offset="0.5674" style="stop-color:#FFFFFF"/>
				<stop  offset="1" style="stop-color:#231F20"/>
			</radialGradient>
			<path style="fill:url(#SVGID_38_);" d="M197.1,61.3c2.6,0,4.7,0.7,4.7,1.5c0,0.8-2.1,1.5-4.7,1.5c-2.6,0-4.7-0.7-4.7-1.5
				C192.5,62,194.5,61.3,197.1,61.3z"/>
		</g>
	</mask>
	<path style="mask:url(#SVGID_37_);fill:#FFFFFF;" d="M197.1,61.3c2.6,0,4.7,0.7,4.7,1.5c0,0.8-2.1,1.5-4.7,1.5
		c-2.6,0-4.7-0.7-4.7-1.5C192.5,62,194.5,61.3,197.1,61.3z"/>
	<defs>
		<filter id="Adobe_OpacityMaskFilter_19_" filterUnits="userSpaceOnUse" x="188.1" y="59.9" width="18" height="5.9">
			<feColorMatrix  type="matrix" values="1 0 0 0 0  0 1 0 0 0  0 0 1 0 0  0 0 0 1 0"/>
		</filter>
	</defs>
	<mask maskUnits="userSpaceOnUse" x="188.1" y="59.9" width="18" height="5.9" id="SVGID_39_">
		<g style="filter:url(#Adobe_OpacityMaskFilter_19_);">
			
				<radialGradient id="SVGID_40_" cx="-1892.0635" cy="1342.6851" r="8.8413" gradientTransform="matrix(0 -0.3333 1.016 0 -1167.0421 -567.7947)" gradientUnits="userSpaceOnUse">
				<stop  offset="0.5674" style="stop-color:#FFFFFF"/>
				<stop  offset="1" style="stop-color:#231F20"/>
			</radialGradient>
			<path style="fill:url(#SVGID_40_);" d="M197.1,59.9c5,0,9,1.3,9,2.9c0,1.6-4,2.9-9,3c-5,0-9-1.3-9-3
				C188.1,61.2,192.2,59.9,197.1,59.9z"/>
		</g>
	</mask>
	<path style="opacity:0.7;mask:url(#SVGID_39_);fill:#FFFFFF;" d="M197.1,59.9c5,0,9,1.3,9,2.9c0,1.6-4,2.9-9,3c-5,0-9-1.3-9-3
		C188.1,61.2,192.2,59.9,197.1,59.9z"/>
</g>
<g>
	<path style="fill:#FFFFFF;" d="M203,72.1l0-4h-1.5l0-0.5h3.6l0,0.5h-1.5l0,4H203z"/>
	<path style="fill:#FFFFFF;" d="M205.8,72.1v-4.6l0.9,0l1.1,3.2c0.1,0.3,0.2,0.5,0.2,0.7c0.1-0.2,0.1-0.4,0.3-0.7l1.1-3.2h0.8v4.6
		h-0.6v-3.8l-1.3,3.8h-0.5l-1.3-3.9l0,3.9H205.8z"/>
</g>
</svg>
